Coordinates
version=1
nRows=8
nColumns=40
inDegrees=yes

Units are S.I. units (second, meters, Newtons, ...)
If the header above contains a line with 'inDegrees', this indicates whether rotational values are in degrees (yes) or radians (no).

endheader
time	pelvis_tilt	pelvis_list	pelvis_rotation	pelvis_tx	pelvis_ty	pelvis_tz	hip_flexion_r	hip_adduction_r	hip_rotation_r	knee_angle_r	knee_angle_r_beta	ankle_angle_r	subtalar_angle_r	mtp_angle_r	hip_flexion_l	hip_adduction_l	hip_rotation_l	knee_angle_l	knee_angle_l_beta	ankle_angle_l	subtalar_angle_l	mtp_angle_l	lumbar_extension	lumbar_bending	lumbar_rotation	arm_flex_r	arm_add_r	arm_rot_r	elbow_flex_r	pro_sup_r	wrist_flex_r	wrist_dev_r	arm_flex_l	arm_add_l	arm_rot_l	elbow_flex_l	pro_sup_l	wrist_flex_l	wrist_dev_l
      1.50000000	    -22.27261645	      0.57133318	     -1.23120073	      0.98212878	      1.04683318	     -0.35297670	     48.64989235	     -1.46955664	    -14.33689517	     16.52785705	      0.28846552	    -26.26263017	      0.00000000	      0.00000000	     -6.69266303	      3.84555676	     -1.96559049	     16.81968487	      0.29355888	    -38.25284304	      0.00000000	      0.00000000	     16.36403178	      1.83403736	    -12.40427281	    -50.02929631	    -26.07916888	    -13.02328610	    103.54837436	     71.40505452	      0.00000000	      0.00000000	    -29.78868002	    -14.16631689	     -9.20581682	    130.69050463	     71.31557332	      0.00000000	      0.00000000
      1.51000000	    -20.52220366	      1.14434927	     -0.58371218	      0.98166762	      1.04822699	     -0.35294686	     45.06945813	     -1.07395041	    -11.12179845	     10.89966518	      0.19023504	    -26.97697585	      0.00000000	      0.00000000	     -7.62468884	      4.28792452	      0.41458211	     21.38445840	      0.37322921	    -37.94039673	      0.00000000	      0.00000000	     13.82229458	      1.17882039	    -12.69012964	    -49.32555191	    -25.21296933	    -13.08125960	    104.53697188	     71.46634715	      0.00000000	      0.00000000	    -29.48469655	    -15.08958612	     -8.47561258	    130.10251574	     71.10840643	      0.00000000	      0.00000000
      1.52000000	    -19.79013533	      1.92424360	     -1.42535943	      0.98374053	      1.04688429	     -0.35235742	     43.88875485	     -0.63000292	    -10.74573590	      9.22624056	      0.16102828	    -26.50420258	      0.00000000	      0.00000000	     -8.29278199	      5.21903479	      0.59794491	     24.46073923	      0.42692044	    -37.90506104	      0.00000000	      0.00000000	     13.21597031	      0.70349895	    -11.65196756	    -48.81987416	    -25.31330188	    -13.07753833	    104.73040157	     71.49870114	      0.00000000	      0.00000000	    -30.13763338	    -15.01555179	     -8.08570028	    129.08068100	     71.02829029	      0.00000000	      0.00000000
      1.53000000	    -18.26364005	      2.29437235	     -1.44147167	      0.98308108	      1.04632264	     -0.35148087	     41.42099694	     -0.38976136	     -8.89931606	      7.15711303	      0.12491519	    -26.10008823	      0.00000000	      0.00000000	     -8.08916973	      4.96325233	     -0.72150995	     30.48855622	      0.53212569	    -37.61421403	      0.00000000	      0.00000000	     11.17153162	      0.33249219	    -11.19333261	    -47.58178482	    -24.90505051	    -12.67541482	    104.76567528	     71.58333044	      0.00000000	      0.00000000	    -29.61733867	    -15.63024235	     -7.39990416	    127.12602917	     70.88998392	      0.00000000	      0.00000000
      1.54000000	    -17.15523864	      2.58807607	     -2.12053697	      0.98369435	      1.04414913	     -0.35009645	     39.48778913	      0.12457532	     -8.35324016	      6.07463290	      0.10602235	    -25.48712195	      0.00000000	      0.00000000	     -7.59974356	      4.66320861	     -2.41896086	     36.09996386	      0.63006323	    -37.32048308	      0.00000000	      0.00000000	      9.88658458	      0.32387397	    -10.17830657	    -46.40149717	    -24.72962160	    -12.39779650	    104.45344916	     71.66277774	      0.00000000	      0.00000000	    -29.82963851	    -15.91490188	     -6.72895427	    125.31132390	     70.81440921	      0.00000000	      0.00000000
      1.55000000	    -16.32028819	      3.43129596	     -3.30904927	      0.98498372	      1.04045796	     -0.34831404	     37.89882156	      0.26708198	     -8.92659012	      5.60394585	      0.09780731	    -25.01279159	      0.00000000	      0.00000000	     -7.13307292	      5.36219729	     -3.02713092	     40.61491824	      0.70886405	    -37.25024110	      0.00000000	      0.00000000	      8.99278989	     -0.32360886	     -8.44605225	    -45.42348952	    -24.88109827	    -12.27372840	    104.17984543	     71.69088737	      0.00000000	      0.00000000	    -31.06127934	    -15.79422696	     -6.23792061	    123.50297675	     70.79728222	      0.00000000	      0.00000000
      1.56000000	    -15.62976377	      2.84506105	     -2.60094148	      0.98211590	      1.03560014	     -0.34736535	     36.36754855	      0.47494045	     -9.49528498	      5.81097683	      0.10142068	    -25.49577066	      0.00000000	      0.00000000	     -4.16443607	      3.04241089	     -4.68052607	     49.63421113	      0.86628041	    -35.76942319	      0.00000000	      0.00000000	      7.91297123	      0.12574670	     -8.34272868	    -43.44839074	    -24.69441222	    -11.61610521	    103.34604402	     71.82868032	      0.00000000	      0.00000000	    -30.00707453	    -16.65301280	     -5.21024729	    121.17287092	     70.90637104	      0.00000000	      0.00000000
      1.57000000	    -14.72678933	      3.98189721	     -3.53041958	      0.98189883	      1.03000137	     -0.34667380	     34.50538142	     -0.20572503	    -10.27615842	      6.13296190	      0.10704038	    -26.30494576	      0.00000000	      0.00000000	     -2.79395031	      3.91335497	     -5.27327853	     55.05197764	      0.96083827	    -35.36278973	      0.00000000	      0.00000000	      6.76821846	     -0.74908544	     -6.68802111	    -42.19029006	    -24.83974014	    -11.38084515	    102.95108104	     71.85472458	      0.00000000	      0.00000000	    -30.92714487	    -16.62026257	     -4.79984751	    118.85634378	     70.91846296	      0.00000000	      0.00000000
